<svg xmlns="http://www.w3.org/2000/svg"
     width="1440"
     height="3360"
     viewBox="0 0 720 1680"
     preserveAspectRatio="xMidYMin meet"
     style="display:block"
     role="img"
     aria-labelledby="v4-title v4-description">
  <title id="v4-title">Llewellyn van der Merwe — Senior Architectural Engineer</title>
  <desc id="v4-description">
    Dark-mode engineering profile for Llewellyn van der Merwe. A native SVG
    dashboard presents systems architecture, platform engineering, intelligent
    software, delivery automation, production operations, sustained open-source
    contribution, current technologies, and professional trajectory.
  </desc>

  <defs>
    <linearGradient id="v4-canvas" x1="0" y1="0" x2="1" y2="1">
      <stop offset="0" stop-color="#070B11"/>
      <stop offset="0.52" stop-color="#0C131C"/>
      <stop offset="1" stop-color="#111B28"/>
    </linearGradient>
    <radialGradient id="v4-ambient" cx="50%" cy="26%" r="58%">
      <stop offset="0" stop-color="#2386FF" stop-opacity="0.22"/>
      <stop offset="0.38" stop-color="#8957E5" stop-opacity="0.09"/>
      <stop offset="0.78" stop-color="#0D1117" stop-opacity="0"/>
    </radialGradient>
    <linearGradient id="v4-spectrum" x1="0" y1="0" x2="1" y2="0">
      <stop offset="0" stop-color="#58A6FF"/>
      <stop offset="0.50" stop-color="#39C5CF"/>
      <stop offset="1" stop-color="#BC8CFF"/>
    </linearGradient>
    <linearGradient id="v4-top-plane" x1="0" y1="0" x2="1" y2="1">
      <stop offset="0" stop-color="#147AF3"/>
      <stop offset="0.52" stop-color="#5967EB"/>
      <stop offset="1" stop-color="#9C55E7"/>
    </linearGradient>
    <linearGradient id="v4-middle-plane" x1="0" y1="0" x2="1" y2="1">
      <stop offset="0" stop-color="#1459C9"/>
      <stop offset="1" stop-color="#0C838D"/>
    </linearGradient>
    <linearGradient id="v4-bottom-plane" x1="0" y1="0" x2="1" y2="1">
      <stop offset="0" stop-color="#173A75"/>
      <stop offset="1" stop-color="#12573A"/>
    </linearGradient>
    <linearGradient id="v4-left-edge" x1="0" y1="0" x2="0" y2="1">
      <stop offset="0" stop-color="#1D61CC"/>
      <stop offset="1" stop-color="#0C223E"/>
    </linearGradient>
    <linearGradient id="v4-right-edge" x1="0" y1="0" x2="0" y2="1">
      <stop offset="0" stop-color="#168F9A"/>
      <stop offset="1" stop-color="#113E2D"/>
    </linearGradient>
    <linearGradient id="v4-trajectory" x1="0" y1="0" x2="1" y2="0">
      <stop offset="0" stop-color="#58A6FF"/>
      <stop offset="0.52" stop-color="#39C5CF"/>
      <stop offset="1" stop-color="#BC8CFF"/>
    </linearGradient>
    <filter id="v4-shadow" x="-35%" y="-35%" width="170%" height="220%">
      <feDropShadow dx="0" dy="15" stdDeviation="15"
                    flood-color="#000000" flood-opacity="0.52"/>
    </filter>
    <filter id="v4-glow" x="-120%" y="-120%" width="340%" height="340%">
      <feGaussianBlur stdDeviation="4" result="blur"/>
      <feMerge>
        <feMergeNode in="blur"/>
        <feMergeNode in="SourceGraphic"/>
      </feMerge>
    </filter>
    <style>
      .v4-sans {
        font-family: -apple-system, BlinkMacSystemFont, "Segoe UI", Helvetica, Arial, sans-serif;
      }
      .v4-mono {
        font-family: ui-monospace, SFMono-Regular, Consolas, "Liberation Mono", monospace;
      }
      .v4-card {
        fill: #111925;
        stroke: #2E3B4A;
        stroke-width: 1;
      }
      .v4-subcard {
        fill: #16202C;
        stroke: #354454;
        stroke-width: 1;
      }
      .v4-labelbox {
        fill: #101823;
        stroke: #334354;
        stroke-width: 1;
      }
      .v4-pill {
        fill: #14202D;
        stroke: #405064;
        stroke-width: 1;
      }
      .v4-primary {
        fill: #F0F6FC;
      }
      .v4-secondary {
        fill: #D2DAE3;
      }
      .v4-muted {
        fill: #9DAABA;
      }
      .v4-faint {
        fill: #7E8C9E;
      }
      .v4-divider {
        stroke: #2A3746;
      }
      .v4-orbit {
        fill: none;
        stroke: #2B394B;
      }
      .v4-heading {
        font-size: 17px;
        font-weight: 820;
        letter-spacing: 0.72px;
      }
      .v4-label {
        font-size: 11px;
        font-weight: 790;
        letter-spacing: 0.44px;
      }
      .v4-small {
        font-size: 10.5px;
      }
      .v4-icon-line {
        fill: none;
        stroke-linecap: round;
        stroke-linejoin: round;
        stroke-width: 1.7;
      }
    </style>
  </defs>

  <rect width="720" height="1680" fill="url(#v4-canvas)"/>
  <rect width="720" height="1680" fill="url(#v4-ambient)"/>

  <!-- Identity -->
  <rect x="24" y="24" width="4" height="104" rx="2" fill="url(#v4-spectrum)"/>
  <text x="44" y="45" class="v4-sans" fill="#58A6FF" font-size="12"
        font-weight="820" letter-spacing="1.45">OPEN-SOURCE ENGINEERING PROFILE</text>
  <text x="44" y="80" class="v4-sans v4-primary" font-size="29" font-weight="820">
    Llewellyn van der Merwe
  </text>
  <text x="44" y="105" class="v4-sans v4-secondary" font-size="14">
    Director · Senior Architectural Engineer
  </text>
  <text x="44" y="126" class="v4-sans v4-muted" font-size="13">
    Intelligent Software and Systems
  </text>

  <g aria-label="Full lifecycle system ownership">
    <rect x="430" y="94" width="266" height="34" rx="17" class="v4-pill"/>
    <circle cx="452" cy="111" r="5" fill="#3FB950" filter="url(#v4-glow)"/>
    <text x="469" y="115" class="v4-sans v4-primary" font-size="10.2"
          font-weight="820" letter-spacing="0.62">FULL-LIFECYCLE SYSTEM OWNERSHIP</text>
  </g>

  <!-- Hero -->
  <g aria-label="Systems that build systems">
    <rect x="24" y="150" width="672" height="480" rx="14" class="v4-card"/>
    <text x="48" y="190" class="v4-sans v4-primary" font-size="25" font-weight="850">
      SYSTEMS THAT BUILD SYSTEMS
    </text>
    <text x="48" y="216" class="v4-sans v4-muted" font-size="13.5">
      Architecture, platforms and intelligent production software.
    </text>

    <!-- Dimensional field -->
    <ellipse cx="360" cy="420" rx="258" ry="146" class="v4-orbit"/>
    <ellipse cx="360" cy="420" rx="204" ry="116" class="v4-orbit" opacity="0.72"/>
    <ellipse cx="360" cy="420" rx="150" ry="86" class="v4-orbit" opacity="0.45"/>
    <path d="M360 244V556" stroke="#79C0FF" stroke-width="2" opacity="0.26"/>
    <path d="M360 248V552" stroke="#58A6FF" stroke-width="9" opacity="0.07"
          filter="url(#v4-glow)"/>

    <!-- Connectors stay outside label boxes -->
    <g fill="none" stroke-width="1.7" stroke-linecap="round">
      <path d="M208 280L258 336" stroke="#58A6FF"/>
      <path d="M512 280L462 336" stroke="#BC8CFF"/>
      <path d="M208 530L235 488" stroke="#D29922"/>
      <path d="M512 530L485 488" stroke="#3FB950"/>
    </g>

    <!-- Meaningful annotation panels -->
    <g class="v4-sans">
      <g aria-label="Domain models">
        <rect x="48" y="250" width="160" height="60" rx="9" class="v4-labelbox"/>
        <g transform="translate(61 266)" stroke="#58A6FF" class="v4-icon-line">
          <circle cx="7" cy="8" r="3"/>
          <circle cx="20" cy="3" r="3"/>
          <circle cx="20" cy="16" r="3"/>
          <path d="M10 7L17 4M10 10L17 15"/>
        </g>
        <text x="91" y="273" class="v4-primary" font-size="10.8" font-weight="790">DOMAIN MODELS</text>
        <text x="91" y="291" class="v4-faint" font-size="9.4">complexity → structure</text>
      </g>

      <g aria-label="AI and agents">
        <rect x="512" y="250" width="160" height="60" rx="9" class="v4-labelbox"/>
        <g transform="translate(525 265)" stroke="#BC8CFF" class="v4-icon-line">
          <circle cx="10" cy="9" r="7"/>
          <circle cx="10" cy="9" r="2"/>
          <path d="M10 0V3M10 15V18M1 9H4M16 9H19"/>
        </g>
        <text x="555" y="273" class="v4-primary" font-size="10.8" font-weight="790">AI + AGENTS</text>
        <text x="555" y="291" class="v4-faint" font-size="9.4">reasoning → execution</text>
      </g>

      <g aria-label="Automation">
        <rect x="48" y="500" width="160" height="60" rx="9" class="v4-labelbox"/>
        <g transform="translate(61 516)" stroke="#D29922" class="v4-icon-line">
          <path d="M4 14A8 8 0 1 1 18 14"/>
          <path d="M18 14L18 8M18 14L12 14"/>
          <circle cx="11" cy="8" r="2.5"/>
        </g>
        <text x="91" y="523" class="v4-primary" font-size="10.8" font-weight="790">AUTOMATION</text>
        <text x="91" y="541" class="v4-faint" font-size="9.4">build → release</text>
      </g>

      <g aria-label="Production operations">
        <rect x="512" y="500" width="160" height="60" rx="9" class="v4-labelbox"/>
        <g transform="translate(525 516)" stroke="#3FB950" class="v4-icon-line">
          <rect x="1" y="1" width="18" height="15" rx="2"/>
          <path d="M5 6L8 9L5 12M11 12H15"/>
        </g>
        <text x="555" y="523" class="v4-primary" font-size="10.8" font-weight="790">PRODUCTION OPS</text>
        <text x="555" y="541" class="v4-faint" font-size="9.4">Linux · containers</text>
      </g>
    </g>

    <!-- Layered engineering platform -->
    <g filter="url(#v4-shadow)">
      <polygon points="188,454 360,356 532,454 360,552"
               fill="url(#v4-bottom-plane)" stroke="#3FB950" stroke-width="1.7"/>
      <polygon points="188,454 360,552 360,570 188,472"
               fill="url(#v4-left-edge)" stroke="#388BFD" stroke-width="1.2"/>
      <polygon points="360,552 532,454 532,472 360,570"
               fill="url(#v4-right-edge)" stroke="#3FB950" stroke-width="1.2"/>
    </g>
    <g filter="url(#v4-shadow)">
      <polygon points="222,397 360,318 498,397 360,476"
               fill="url(#v4-middle-plane)" stroke="#39C5CF" stroke-width="1.7"/>
      <polygon points="222,397 360,476 360,493 222,414"
               fill="url(#v4-left-edge)" stroke="#388BFD" stroke-width="1.2"/>
      <polygon points="360,476 498,397 498,414 360,493"
               fill="url(#v4-right-edge)" stroke="#39C5CF" stroke-width="1.2"/>
    </g>
    <g filter="url(#v4-shadow)">
      <polygon points="252,340 360,278 468,340 360,402"
               fill="url(#v4-top-plane)" stroke="#A9DDFF" stroke-width="1.8"/>
      <polygon points="252,340 360,402 360,418 252,356"
               fill="url(#v4-left-edge)" stroke="#58A6FF" stroke-width="1.2"/>
      <polygon points="360,402 468,340 468,356 360,418"
               fill="url(#v4-right-edge)" stroke="#BC8CFF" stroke-width="1.2"/>
    </g>

    <g class="v4-sans" text-anchor="middle">
      <rect x="291" y="322" width="138" height="26" rx="13" fill="#0B1018" opacity="0.88"/>
      <text x="360" y="340" fill="#FFFFFF" font-size="12.5" font-weight="840"
            letter-spacing="0.82">ARCHITECTURE</text>
      <rect x="291" y="383" width="138" height="26" rx="13" fill="#0B1018" opacity="0.88"/>
      <text x="360" y="401" fill="#FFFFFF" font-size="12.5" font-weight="840"
            letter-spacing="0.82">PLATFORMS</text>
      <rect x="291" y="444" width="138" height="26" rx="13" fill="#0B1018" opacity="0.88"/>
      <text x="360" y="462" fill="#FFFFFF" font-size="12.5" font-weight="840"
            letter-spacing="0.82">PRODUCTION</text>
    </g>

    <!-- Senior judgment core -->
    <circle cx="360" cy="278" r="32" fill="#090D13" stroke="#F0F6FC" stroke-width="1.5"/>
    <circle cx="360" cy="278" r="23" fill="#111925" stroke="url(#v4-spectrum)"
            stroke-width="2.4" filter="url(#v4-glow)"/>
    <text x="360" y="274" class="v4-sans" fill="#F0F6FC" font-size="9.3"
          font-weight="850" text-anchor="middle" letter-spacing="0.72">SENIOR</text>
    <text x="360" y="287" class="v4-sans" fill="#F0F6FC" font-size="9.3"
          font-weight="850" text-anchor="middle" letter-spacing="0.72">JUDGMENT</text>

    <rect x="48" y="583" width="624" height="32" rx="16" class="v4-labelbox"/>
    <text x="360" y="604" class="v4-sans v4-secondary" font-size="10.2"
          font-weight="820" text-anchor="middle" letter-spacing="0.65">
      ARCHITECTURE → DELIVERY → PRODUCTION → EVOLUTION
    </text>
  </g>

  <!-- Capability field -->
  <g aria-label="Engineering capability field">
    <rect x="24" y="646" width="672" height="320" rx="14" class="v4-card"/>
    <text x="48" y="684" class="v4-sans v4-primary v4-heading">ENGINEERING CAPABILITY FIELD</text>
    <text x="672" y="684" class="v4-sans v4-faint v4-small" text-anchor="end">
      broad scope · one architectural view
    </text>

    <g class="v4-sans">
      <!-- Platform architecture -->
      <rect x="48" y="707" width="300" height="68" rx="10" class="v4-subcard"/>
      <rect x="60" y="719" width="40" height="44" rx="9" fill="#102B52" stroke="#58A6FF"/>
      <g transform="translate(69 729)" stroke="#79C0FF" class="v4-icon-line">
        <path d="M1 7L11 1L21 7L11 13Z"/>
        <path d="M1 12L11 18L21 12"/>
        <path d="M1 17L11 23L21 17"/>
      </g>
      <text x="112" y="735" class="v4-primary v4-label">PLATFORM ARCHITECTURE</text>
      <text x="112" y="756" class="v4-muted v4-small">generators · domain models</text>

      <!-- Data and APIs -->
      <rect x="372" y="707" width="300" height="68" rx="10" class="v4-subcard"/>
      <rect x="384" y="719" width="40" height="44" rx="9" fill="#10343A" stroke="#39C5CF"/>
      <g transform="translate(393 729)" stroke="#56D4DD" class="v4-icon-line">
        <ellipse cx="8" cy="4" rx="7" ry="3"/>
        <path d="M1 4V17C1 21 15 21 15 17V4M1 10C1 14 15 14 15 10"/>
        <path d="M18 8H23M21 5L24 8L21 11"/>
      </g>
      <text x="436" y="735" class="v4-primary v4-label">DATA + API SYSTEMS</text>
      <text x="436" y="756" class="v4-muted v4-small">schemas · services · integrations</text>

      <!-- Native engineering -->
      <rect x="48" y="787" width="300" height="68" rx="10" class="v4-subcard"/>
      <rect x="60" y="799" width="40" height="44" rx="9" fill="#3A1830" stroke="#F778BA"/>
      <g transform="translate(68 814)" class="v4-mono" fill="#FF9BD2">
        <text x="12" y="13" font-size="12" font-weight="900" text-anchor="middle">C++</text>
      </g>
      <text x="112" y="815" class="v4-primary v4-label">NATIVE ENGINEERING</text>
      <text x="112" y="836" class="v4-muted v4-small">C++ · performance · portability</text>

      <!-- Intelligent software -->
      <rect x="372" y="787" width="300" height="68" rx="10" class="v4-subcard"/>
      <rect x="384" y="799" width="40" height="44" rx="9" fill="#2A1D4A" stroke="#BC8CFF"/>
      <g transform="translate(393 808)" stroke="#D2A8FF" class="v4-icon-line">
        <circle cx="11" cy="13" r="4"/>
        <circle cx="3" cy="5" r="2"/>
        <circle cx="19" cy="5" r="2"/>
        <circle cx="3" cy="21" r="2"/>
        <circle cx="19" cy="21" r="2"/>
        <path d="M6 8L8 10M16 10L18 8M6 18L8 16M16 16L18 18"/>
      </g>
      <text x="436" y="815" class="v4-primary v4-label">INTELLIGENT SOFTWARE</text>
      <text x="436" y="836" class="v4-muted v4-small">Python · agents · MCP</text>

      <!-- Delivery automation -->
      <rect x="48" y="867" width="300" height="68" rx="10" class="v4-subcard"/>
      <rect x="60" y="879" width="40" height="44" rx="9" fill="#3B3212" stroke="#D29922"/>
      <g transform="translate(69 890)" stroke="#E3B341" class="v4-icon-line">
        <rect x="1" y="1" width="21" height="20" rx="3"/>
        <path d="M6 7L10 11L6 15M13 15H18"/>
      </g>
      <text x="112" y="895" class="v4-primary v4-label">DELIVERY AUTOMATION</text>
      <text x="112" y="916" class="v4-muted v4-small">Bash · CI/CD · release systems</text>

      <!-- Production operations -->
      <rect x="372" y="867" width="300" height="68" rx="10" class="v4-subcard"/>
      <rect x="384" y="879" width="40" height="44" rx="9" fill="#103A22" stroke="#3FB950"/>
      <g transform="translate(393 889)" stroke="#56D364" class="v4-icon-line">
        <rect x="1" y="2" width="9" height="8" rx="1"/>
        <rect x="13" y="2" width="9" height="8" rx="1"/>
        <rect x="1" y="13" width="9" height="8" rx="1"/>
        <rect x="13" y="13" width="9" height="8" rx="1"/>
      </g>
      <text x="436" y="895" class="v4-primary v4-label">PRODUCTION OPERATIONS</text>
      <text x="436" y="916" class="v4-muted v4-small">Linux · Docker · reliability</text>
    </g>
  </g>

  <!-- Evidence and technology -->
  <g aria-label="Evidence and current technology">
    <rect x="24" y="982" width="672" height="360" rx="14" class="v4-card"/>
    <text x="48" y="1020" class="v4-sans v4-primary v4-heading">PROVEN AT SCALE</text>
    <text x="672" y="1020" class="v4-sans v4-faint v4-small" text-anchor="end">
      public evidence · sustained responsibility
    </text>

    <rect x="48" y="1040" width="300" height="82" rx="10" class="v4-subcard"/>
    <text x="68" y="1076" class="v4-mono v4-primary" font-size="24" font-weight="850">SINCE 2008</text>
    <text x="68" y="1099" class="v4-sans v4-secondary v4-label">SOFTWARE + JOOMLA</text>
    <text x="68" y="1115" class="v4-sans v4-faint" font-size="9.8">sustained engineering</text>

    <rect x="372" y="1040" width="300" height="82" rx="10" class="v4-subcard"/>
    <text x="392" y="1076" class="v4-mono v4-primary" font-size="24" font-weight="850">10+ YEARS</text>
    <text x="392" y="1099" class="v4-sans v4-secondary v4-label">PLATFORM STEWARDSHIP</text>
    <text x="392" y="1115" class="v4-sans v4-faint" font-size="9.8">architecture maintained over time</text>

    <rect x="48" y="1134" width="300" height="82" rx="10" class="v4-subcard"/>
    <text x="68" y="1170" class="v4-mono v4-primary" font-size="24" font-weight="850">JOOMLA 3→6</text>
    <text x="68" y="1193" class="v4-sans v4-secondary v4-label">ONE GENERATOR</text>
    <text x="68" y="1209" class="v4-sans v4-faint" font-size="9.8">four major generations</text>

    <rect x="372" y="1134" width="300" height="82" rx="10" class="v4-subcard"/>
    <text x="392" y="1170" class="v4-mono v4-primary" font-size="25" font-weight="850">109</text>
    <text x="392" y="1193" class="v4-sans v4-secondary v4-label">CANONICAL REPOSITORIES</text>
    <text x="392" y="1209" class="v4-sans v4-faint" font-size="9.8">attributable · de-duplicated</text>

    <text x="48" y="1246" class="v4-sans v4-primary" font-size="13.5"
          font-weight="820" letter-spacing="0.62">CURRENT TECHNOLOGY SYSTEM</text>

    <g class="v4-sans" text-anchor="middle">
      <!-- C++ -->
      <rect x="44" y="1262" width="72" height="56" rx="9" class="v4-subcard"/>
      <polygon points="80,1270 92,1277 92,1291 80,1298 68,1291 68,1277"
               fill="#3A1830" stroke="#F778BA"/>
      <text x="80" y="1288" class="v4-mono" fill="#FF9BD2" font-size="8.5"
            font-weight="900">C++</text>
      <text x="80" y="1310" class="v4-muted" font-size="8.5" font-weight="760">C++</text>

      <!-- Python -->
      <rect x="124" y="1262" width="72" height="56" rx="9" class="v4-subcard"/>
      <path d="M151 1272H160C164 1272 166 1274 166 1278V1283H155C151 1283 149 1281 149 1278V1276C149 1274 150 1273 151 1272Z"
            fill="#3776AB"/>
      <path d="M169 1298H160C156 1298 154 1296 154 1292V1287H165C169 1287 171 1289 171 1292V1294C171 1296 170 1297 169 1298Z"
            fill="#FFD343"/>
      <circle cx="160" cy="1276" r="1" fill="#FFFFFF"/>
      <circle cx="160" cy="1294" r="1" fill="#FFFFFF"/>
      <text x="160" y="1310" class="v4-muted" font-size="8.5" font-weight="760">PYTHON</text>

      <!-- TypeScript and JavaScript -->
      <rect x="204" y="1262" width="72" height="56" rx="9" class="v4-subcard"/>
      <rect x="218" y="1271" width="20" height="24" rx="2" fill="#3178C6"/>
      <text x="228" y="1289" fill="#FFFFFF" font-size="9" font-weight="900">TS</text>
      <rect x="242" y="1271" width="20" height="24" rx="2" fill="#F7DF1E"/>
      <text x="252" y="1289" fill="#202124" font-size="9" font-weight="900">JS</text>
      <text x="240" y="1310" class="v4-muted" font-size="8.2" font-weight="760">TS + JS</text>

      <!-- PHP -->
      <rect x="284" y="1262" width="72" height="56" rx="9" class="v4-subcard"/>
      <ellipse cx="320" cy="1284" rx="19" ry="12" fill="#777BB4"/>
      <text x="320" y="1288" fill="#FFFFFF" font-size="9" font-weight="900"
            font-style="italic">PHP</text>
      <text x="320" y="1310" class="v4-muted" font-size="8.5" font-weight="760">PHP</text>

      <!-- CSS -->
      <rect x="364" y="1262" width="72" height="56" rx="9" class="v4-subcard"/>
      <path d="M389 1271H411L409 1294L400 1298L391 1294Z" fill="#1572B6"/>
      <text x="400" y="1289" fill="#FFFFFF" font-size="10" font-weight="900">3</text>
      <text x="400" y="1310" class="v4-muted" font-size="8.5" font-weight="760">CSS</text>

      <!-- Bash and Linux -->
      <rect x="444" y="1262" width="72" height="56" rx="9" class="v4-subcard"/>
      <rect x="468" y="1271" width="24" height="25" rx="3" fill="#103A22" stroke="#3FB950"/>
      <text x="480" y="1288" class="v4-mono" fill="#56D364" font-size="10"
            font-weight="900">&gt;_</text>
      <text x="480" y="1310" class="v4-muted" font-size="8.1" font-weight="760">BASH/LINUX</text>

      <!-- Containers -->
      <rect x="524" y="1262" width="72" height="56" rx="9" class="v4-subcard"/>
      <g transform="translate(545 1271)" fill="#58A6FF">
        <rect x="0" y="7" width="7" height="6" rx="1"/>
        <rect x="9" y="7" width="7" height="6" rx="1"/>
        <rect x="18" y="7" width="7" height="6" rx="1"/>
        <rect x="9" y="0" width="7" height="6" rx="1"/>
        <path d="M0 15H29C27 22 22 25 14 25C7 25 2 22 0 15Z"/>
      </g>
      <text x="560" y="1310" class="v4-muted" font-size="8.5" font-weight="760">DOCKER</text>

      <!-- AI -->
      <rect x="604" y="1262" width="72" height="56" rx="9" class="v4-subcard"/>
      <g transform="translate(629 1271)" stroke="#BC8CFF" class="v4-icon-line">
        <circle cx="11" cy="13" r="4"/>
        <circle cx="2" cy="4" r="2"/>
        <circle cx="20" cy="4" r="2"/>
        <circle cx="2" cy="22" r="2"/>
        <circle cx="20" cy="22" r="2"/>
        <path d="M5 7L8 10M14 10L17 7M5 19L8 16M14 16L17 19"/>
      </g>
      <text x="640" y="1310" class="v4-muted" font-size="8.1" font-weight="760">AI + AGENTS</text>
    </g>
  </g>

  <!-- Professional trajectory -->
  <g aria-label="Professional trajectory from 2008 through 2026">
    <rect x="24" y="1358" width="672" height="258" rx="14" class="v4-card"/>
    <text x="48" y="1396" class="v4-sans v4-primary v4-heading">PROFESSIONAL TRAJECTORY</text>
    <text x="48" y="1420" class="v4-sans v4-muted" font-size="12.5">
      increasing scope of engineering ownership
    </text>
    <text x="662" y="1420" class="v4-sans v4-faint" font-size="10"
          text-anchor="end" letter-spacing="0.7">RESPONSIBILITY</text>

    <line x1="88" y1="1450" x2="88" y2="1578" class="v4-divider"
          stroke-width="6" stroke-linecap="round"/>
    <line x1="88" y1="1450" x2="88" y2="1578" stroke="url(#v4-trajectory)"
          stroke-width="3" stroke-linecap="round"/>

    <g class="v4-sans">
      <circle cx="88" cy="1450" r="7" fill="#090D13" stroke="#58A6FF" stroke-width="4"/>
      <text x="116" y="1454" class="v4-mono v4-primary" font-size="14" font-weight="850">2008</text>
      <text x="174" y="1454" class="v4-secondary v4-label">SOFTWARE + JOOMLA</text>
      <rect x="490" y="1446" width="52" height="8" rx="4" fill="#58A6FF" opacity="0.72"/>

      <circle cx="88" cy="1482" r="7" fill="#090D13" stroke="#79C0FF" stroke-width="4"/>
      <text x="116" y="1486" class="v4-mono v4-primary" font-size="14" font-weight="850">2013</text>
      <text x="174" y="1486" class="v4-secondary v4-label">FOUNDER + DIRECTOR</text>
      <rect x="490" y="1478" width="78" height="8" rx="4" fill="#58A6FF" opacity="0.78"/>

      <circle cx="88" cy="1514" r="7" fill="#090D13" stroke="#3FB950" stroke-width="4"/>
      <text x="116" y="1518" class="v4-mono v4-primary" font-size="14" font-weight="850">2016</text>
      <text x="174" y="1518" class="v4-secondary v4-label">OFFICIAL JOOMLA SERVICE</text>
      <rect x="490" y="1510" width="104" height="8" rx="4" fill="#39C5CF" opacity="0.82"/>

      <circle cx="88" cy="1546" r="7" fill="#090D13" stroke="#39C5CF" stroke-width="4"/>
      <text x="116" y="1550" class="v4-mono v4-primary" font-size="14" font-weight="850">2021</text>
      <text x="174" y="1550" class="v4-secondary v4-label">OFFICIAL CONTAINERS</text>
      <rect x="490" y="1542" width="130" height="8" rx="4" fill="#39C5CF" opacity="0.88"/>

      <circle cx="88" cy="1578" r="9" fill="#090D13" stroke="#BC8CFF" stroke-width="4"
              filter="url(#v4-glow)"/>
      <text x="116" y="1582" class="v4-mono v4-primary" font-size="14" font-weight="850">2026</text>
      <text x="174" y="1582" class="v4-secondary v4-label">NATIVE + INTELLIGENT SYSTEMS</text>
      <rect x="490" y="1574" width="164" height="8" rx="4" fill="url(#v4-trajectory)"/>
    </g>
  </g>

  <!-- Destination cue -->
  <text x="24" y="1654" class="v4-sans v4-secondary" font-size="12" font-weight="820"
        letter-spacing="0.72">SENIOR JUDGMENT · AI-MULTIPLIED EXECUTION</text>
  <g aria-label="View executive profile">
    <rect x="454" y="1633" width="242" height="32" rx="16" class="v4-pill"/>
    <text x="575" y="1654" class="v4-sans" fill="#79C0FF" font-size="11"
          font-weight="850" text-anchor="middle" letter-spacing="0.75">
      VIEW EXECUTIVE PROFILE →
    </text>
  </g>
</svg>
